<svg xmlns="http://www.w3.org/2000/svg" width="20" height="20" viewBox="0 0 20 20">
    <defs>
        <linearGradient id="oclyuj8l8a" x1="100%" x2="0%" y1="67.459%" y2="33.287%">
            <stop offset="0%" stop-color="#FFD521"/>
            <stop offset="100%" stop-color="#FFEC42"/>
        </linearGradient>
        <linearGradient id="ah4sqi1lgb" x1="0%" x2="100%" y1="41.632%" y2="58.368%">
            <stop offset="0%" stop-color="#FFD51D"/>
            <stop offset="100%" stop-color="#F7981F"/>
        </linearGradient>
    </defs>
    <g fill="none" fill-rule="evenodd">
        <g>
            <g>
                <g>
                    <g>
                        <path fill="url(#oclyuj8l8a)" d="M3.125 6.25h13.75v6.903c0 .675-.547 1.222-1.222 1.222H4.347c-.675 0-1.222-.547-1.222-1.222V6.25z" transform="translate(-578 -464) translate(570 454) translate(8 8) translate(0 2)"/>
                        <path fill="url(#ah4sqi1lgb)" d="M4.347 5h11.306c.675 0 1.222.547 1.222 1.222v.366L10 10.625 3.125 6.588v-.366C3.125 5.547 3.672 5 4.347 5z" transform="translate(-578 -464) translate(570 454) translate(8 8) translate(0 2)"/>
                        <path fill="url(#ah4sqi1lgb)" d="M4.347 9.375h11.306c.675 0 1.222.547 1.222 1.222v.366L10 15l-6.875-4.037v-.366c0-.675.547-1.222 1.222-1.222z" transform="translate(-578 -464) translate(570 454) translate(8 8) translate(0 2) rotate(-180 10 12.188)"/>
                        <path stroke="#FFF" stroke-linecap="round" stroke-width="1.222" d="M3.75 6.25l2.517 1.923c2.175 1.663 5.19 1.675 7.38.032L16.25 6.25h0" transform="translate(-578 -464) translate(570 454) translate(8 8) translate(0 2)"/>
                    </g>
                </g>
            </g>
        </g>
    </g>
</svg>
