<svg xmlns="http://www.w3.org/2000/svg" width="20" height="20" viewBox="0 0 20 20">
    <defs>
        <linearGradient id="rex1exw4ka" x1="53.125%" x2="46.875%" y1="0%" y2="100%">
            <stop offset="0%" stop-color="#F7991F"/>
            <stop offset="100%" stop-color="#FFD41D"/>
        </linearGradient>
        <linearGradient id="koqoq3d0zb" x1="46.875%" x2="53.125%" y1="100%" y2="0%">
            <stop offset="0%" stop-color="#FFD521"/>
            <stop offset="100%" stop-color="#FFEB42"/>
        </linearGradient>
    </defs>
    <g fill="none" fill-rule="evenodd">
        <g>
            <g>
                <g>
                    <g>
                        <g>
                            <path fill="url(#rex1exw4ka)" d="M0 1.599L3.75 0.093 3.75 13.617 0 15.093z" transform="translate(-578 -384) translate(570 374) translate(8 8) translate(0 2) translate(2.5 2.5)"/>
                            <path fill="url(#koqoq3d0zb)" d="M3.75 1.599L7.5 0.093 7.5 13.617 3.75 15.093z" transform="translate(-578 -384) translate(570 374) translate(8 8) translate(0 2) translate(2.5 2.5) matrix(-1 0 0 1 11.25 0)"/>
                            <path fill="url(#rex1exw4ka)" d="M7.5 1.599L11.25 0.093 11.25 13.617 7.5 15.093z" transform="translate(-578 -384) translate(570 374) translate(8 8) translate(0 2) translate(2.5 2.5)"/>
                            <path fill="url(#koqoq3d0zb)" d="M11.25 1.599L15 0.093 15 13.617 11.25 15.093z" transform="translate(-578 -384) translate(570 374) translate(8 8) translate(0 2) translate(2.5 2.5) matrix(-1 0 0 1 26.25 0)"/>
                            <path stroke="#FFF" d="M0 10.544c1.308 0 2.17-2.25 4.795-1.944 2.625.307 2.91 2.75 4.568 3.278 1.658.528 2.323-.123 2.323-1.507 0-.922-.883-1.848-2.65-2.778" transform="translate(-578 -384) translate(570 374) translate(8 8) translate(0 2) translate(2.5 2.5)"/>
                            <g transform="translate(-578 -384) translate(570 374) translate(8 8) translate(0 2) translate(2.5 2.5) translate(6.25 .093)">
                                <path fill="#4A4A4A" d="M2.813 7.786c1.874-2.197 2.812-3.828 2.812-4.893C5.625 1.295 4.365 0 2.812 0 1.26 0 0 1.295 0 2.893c0 1.065.938 2.696 2.813 4.893z"/>
                                <circle cx="2.813" cy="2.813" r="1.563" fill="#D8D8D8"/>
                            </g>
                        </g>
                    </g>
                </g>
            </g>
        </g>
    </g>
</svg>
