<svg xmlns="http://www.w3.org/2000/svg" width="20" height="20" viewBox="0 0 20 20">
    <defs>
        <linearGradient id="pje9e1rv2a" x1="50%" x2="50%" y1="2.136%" y2="100%">
            <stop offset="0%" stop-color="#FFD521"/>
            <stop offset="100%" stop-color="#FFEC42"/>
        </linearGradient>
        <linearGradient id="50kquogrib" x1="32.001%" x2="65.777%" y1="0%" y2="100%">
            <stop offset="0%" stop-color="#FFD51D"/>
            <stop offset="100%" stop-color="#F7981F"/>
        </linearGradient>
        <linearGradient id="xje0rp92bc" x1="50%" x2="50%" y1="2.136%" y2="100%">
            <stop offset="0%" stop-color="#FFD521"/>
            <stop offset="100%" stop-color="#FFEC42"/>
        </linearGradient>
    </defs>
    <g fill="none" fill-rule="evenodd">
        <g>
            <g>
                <g>
                    <g>
                        <g transform="translate(-578 -424) translate(570 414) translate(8 8) translate(0 2) translate(6.25 1.875)">
                            <path fill="url(#pje9e1rv2a)" d="M1.626 0c.448 0 .812.363.812.812v3.206H.812L.815.812c0-.449.364-.812.812-.812z"/>
                            <rect width="8.125" height="14.464" y="2.411" fill="url(#50kquogrib)" rx="2"/>
                            <path fill="url(#xje0rp92bc)" d="M2.459 3.179L5.67 3.179 5.67 9.679 2.455 9.679z" transform="rotate(-90 4.063 6.429)"/>
                            <path fill="#D8D8D8" d="M3.661 1.991L4.464 1.991 4.464 5.241 3.661 5.241z" transform="rotate(90 4.063 3.616)"/>
                            <path stroke="#FFF" stroke-width="1.3" d="M1.462 10.293H2.4619999999999997V11.293H1.462zM3.9 10.293H4.9V11.293H3.9zM6.338 10.293H7.338V11.293H6.338zM1.462 12.704H2.4619999999999997V13.704H1.462zM3.9 12.704H4.9V13.704H3.9zM6.338 12.704H7.338V13.704H6.338zM1.462 15.114H2.4619999999999997V16.114H1.462zM3.9 15.114H4.9V16.114H3.9zM6.338 15.114H7.338V16.114H6.338z"/>
                        </g>
                    </g>
                </g>
            </g>
        </g>
    </g>
</svg>
