<svg xmlns="http://www.w3.org/2000/svg" width="380" height="46" viewBox="0 0 380 46">
    <defs>
        <linearGradient id="a" x1="100%" x2="0%" y1="49.267%" y2="50.733%">
            <stop offset="0%" stop-color="#FFEC43"/>
            <stop offset="100%" stop-color="#FFD420"/>
        </linearGradient>
    </defs>
    <g fill="none" fill-rule="evenodd">
        <path fill="url(#a)" d="M0 0h380v46H0z"/>
        <path fill="#333" d="M191.728 11.784s.813-.255 1.576.27c.413.283 3.75 3.453 3.75 3.453s.407.301-.097.818c-.316.354-1.441 1.389-1.748 1.699-.372.374-2.207 2.28-2.207 2.28s-.126.109-.169.202c-.035.075-.045.211-.045.211l-.226 2.413s-.212 1.128.028 1.537c.24.41 2.087 1.65 2.496 2.213.343.473 2.233 2.938 2.475 3.24.241.302.528.596.716.637.325.074 1.849-.474 2.412-.524.854-.075 1.636-.07 1.897-.064.26.004.25 0 .406-.025.414-.068.65-.609.974-.45.454.221 1.287.761 1.612.97.326.209.66.383.959.749.366.446.642.826.322.982-.199.096-3.509-.089-4.386-.003-1.08.104-5.83 2.354-6.12 2.43-.289.076-.634.205-1.004.173-.37-.034-1.317-.74-1.819-1.098-.501-.36-1.354-.995-1.354-.995s-2.089-1.777-2.467-2.32c-.453-.65-.707-1.457-.863-1.974-.155-.515-.296-1.1-.416-1.32-.12-.217-1.717-2.037-2.012-2.406-.185-.231-.492-.595-.492-.595s-.051-.079-.105-.096c-.044-.013-.119.007-.119.007l-10.674 4.05-.372.403s-.077.093-.145.126c-.07.033-.2.032-.2.032l-.64.074-.375.21c-.164.092-.448-.024-.196-.33.253-.306.977-1.014.977-1.014s.212-.276.363-.313c.152-.038 1.104-.242 1.34-.36.235-.117 6.732-3.805 6.732-3.805s.54-.468.61-.588c.071-.12 2.14-1.267 2.388-1.349.554-.18.73-.273.872-.316.207-.063 1.19-.607 1.28-.687.282-.25.178-.66-.215-.923-.296-.199-.7-.361-.7-.361s-.105-.048-.142-.11c-.034-.058.012-.182.012-.182s.574-1.613.807-1.94c.267-.373 1.072-1.233 2.19-.822 1.117.41 1.352.866 1.407 1.41.032.313-.288 1.086-.288 1.086s-.01.048.009.064c.02.016.068-.007.068-.007s3.438-1.957 3.673-2.088c.272-.15.259-.289.04-.803-.082-.189-1.12-1.813-1.328-2.136l-.035-.056s-1.13.211-1.44.384c-.375.206-.666.382-.666.382s-.256-.256.023-.52c.279-.266.472-.376.472-.376l-.827-.866s-.061-.113-.047-.188c.018-.101.188-.188.188-.188zM178.787 9c1.6.03 2.876 1.328 2.848 2.902-.028 1.575-1.348 2.828-2.948 2.802-1.601-.028-2.876-1.327-2.85-2.902.029-1.575 1.349-2.829 2.95-2.802z"/>
    </g>
</svg>
