<svg xmlns="http://www.w3.org/2000/svg" width="20" height="20" viewBox="0 0 20 20">
    <defs>
        <linearGradient id="ztx5fmxqwa" x1="37.875%" x2="80.867%" y1="8.179%" y2="100%">
            <stop offset="0%" stop-color="#FFEB42"/>
            <stop offset="100%" stop-color="#FFD31D"/>
        </linearGradient>
        <linearGradient id="48d3nfgzfb" x1="94.866%" x2="5.134%" y1="100%" y2="0%">
            <stop offset="0%" stop-color="#FBB12E"/>
            <stop offset="100%" stop-color="#FFD31D"/>
        </linearGradient>
        <linearGradient id="d2bbmadmfc" x1="100%" x2="0%" y1="100%" y2="0%">
            <stop offset="0%" stop-color="#FBB12E"/>
            <stop offset="100%" stop-color="#FFD31D"/>
        </linearGradient>
    </defs>
    <g fill="none" fill-rule="evenodd">
        <g>
            <g>
                <g transform="translate(-577 -1406) translate(569 1396) translate(8 10)">
                    <g>
                        <path fill="#9B9B9B" d="M4.375 16.25h3.75v.755c0 .619-.501 1.12-1.12 1.12h-1.51c-.619 0-1.12-.501-1.12-1.12v-.755z" transform="translate(3.75 1.25)"/>
                        <path fill="#4A4A4A" d="M3.4 14h5.625v.755c0 .619-.501 1.12-1.12 1.12H4.52c-.619 0-1.12-.501-1.12-1.12V14z" transform="translate(3.75 1.25)"/>
                        <path fill="url(#ztx5fmxqwa)" d="M4.2 0.7L9.793 1.102 11.9 3.912 11.9 7.81 11.412 9.533 10.624 10.5 7.382 5.554z" transform="translate(3.75 1.25)"/>
                        <path fill="url(#48d3nfgzfb)" fill-rule="nonzero" d="M6.266 0C9.752 0 12.6 2.604 12.6 5.894c0 3.875-2.382 5.465-3.157 7.405-3.584.003-5.693.003-6.326 0C2.323 11.36 0 9.77 0 5.894 0 2.604 2.78 0 6.266 0zM6.3 1.417c-2.637 0-4.9 2.073-4.9 4.477 0 1.545.526 2.789 1.408 4.148l.699 1.024c.183.265.325.48.453.686l.09.148H8.4l.073-.12c.082-.132.17-.267.27-.415l.775-1.118c.998-1.464 1.691-2.74 1.691-4.353 0-2.386-2.254-4.477-4.909-4.477z" transform="translate(3.75 1.25)"/>
                        <path fill="#FFF" d="M7.659 2.8H8.658999999999999V3.8H7.659z" transform="translate(3.75 1.25)"/>
                    </g>
                    <circle cx="1.875" cy="7.5" r="1" fill="url(#d2bbmadmfc)"/>
                    <circle cx="2.5" cy="3.75" r="1" fill="url(#d2bbmadmfc)"/>
                    <circle cx="5" cy="1.25" r="1" fill="url(#d2bbmadmfc)"/>
                    <circle cx="18.125" cy="7.5" r="1" fill="url(#d2bbmadmfc)"/>
                    <circle cx="17.5" cy="3.75" r="1" fill="url(#d2bbmadmfc)"/>
                    <circle cx="15" cy="1.25" r="1" fill="url(#d2bbmadmfc)"/>
                </g>
            </g>
        </g>
    </g>
</svg>
