<svg xmlns="http://www.w3.org/2000/svg" width="20" height="20" viewBox="0 0 20 20">
    <defs>
        <linearGradient id="3pd6gyifta" x1="0%" x2="100%" y1="0%" y2="100%">
            <stop offset="0%" stop-color="#FFD51D"/>
            <stop offset="100%" stop-color="#F7981F"/>
        </linearGradient>
        <linearGradient id="phsint63xb" x1="100%" x2="0%" y1="100%" y2="2.136%">
            <stop offset="0%" stop-color="#FFD521"/>
            <stop offset="100%" stop-color="#FFEC42"/>
        </linearGradient>
    </defs>
    <g fill="none" fill-rule="evenodd">
        <g>
            <g>
                <g>
                    <path fill="url(#3pd6gyifta)" d="M3.926 10.352l1.699 1.699 1.7-1.7c.468-.468 1.229-.468 1.698 0 .47.47.47 1.23 0 1.7L7.324 13.75l1.7 1.7c.468.468.468 1.229 0 1.698-.47.47-1.23.47-1.7 0L5.625 15.45l-1.7 1.7c-.468.468-1.229.468-1.698 0-.47-.47-.47-1.23 0-1.7l1.699-1.699-1.7-1.7c-.468-.468-.468-1.229 0-1.698.47-.47 1.23-.47 1.7 0z" transform="translate(-577 -1852) translate(569 1842) translate(8 10)"/>
                    <path fill="url(#phsint63xb)" d="M14.375 2.5c2.071 0 3.75 1.679 3.75 3.75 0 2.071-1.679 3.75-3.75 3.75-2.071 0-3.75-1.679-3.75-3.75 0-2.071 1.679-3.75 3.75-3.75zm0 2.5c-.69 0-1.25.56-1.25 1.25s.56 1.25 1.25 1.25 1.25-.56 1.25-1.25S15.065 5 14.375 5z" transform="translate(-577 -1852) translate(569 1842) translate(8 10)"/>
                    <path fill="#FFF" d="M3.125 16.25H4.125V17.25H3.125z" transform="translate(-577 -1852) translate(569 1842) translate(8 10)"/>
                </g>
            </g>
        </g>
    </g>
</svg>
