<svg xmlns="http://www.w3.org/2000/svg" width="20" height="20" viewBox="0 0 20 20">
    <defs>
        <linearGradient id="5eh7nb0qja" x1="100%" x2="0%" y1="70.697%" y2="29.303%">
            <stop offset="0%" stop-color="#FFD31D"/>
            <stop offset="100%" stop-color="#FBB12E"/>
        </linearGradient>
        <linearGradient id="fz9rmvi5rb" x1="30.359%" x2="100%" y1="49.481%" y2="50.62%">
            <stop offset="0%" stop-color="#FFEB42"/>
            <stop offset="100%" stop-color="#FFD31D"/>
        </linearGradient>
        <linearGradient id="9pwmvsfk5c" x1="30.359%" x2="100%" y1="49.481%" y2="50.62%">
            <stop offset="0%" stop-color="#FFD31D"/>
            <stop offset="100%" stop-color="#FFEB42"/>
        </linearGradient>
    </defs>
    <g fill="none" fill-rule="evenodd">
        <g>
            <g>
                <g transform="translate(-577 -1206) translate(569 1196) translate(8 10)">
                    <path fill="url(#5eh7nb0qja)" d="M6.25 5.619c.923 0 1.728-.5 2.162-1.243h.676c.434.743 1.24 1.243 2.162 1.243.923 0 1.728-.5 2.162-1.243h.676c.434.743 1.24 1.243 2.162 1.243.923 0 1.728-.5 2.162-1.243l.34-.001v11.25H1.266V5.618l.148-.005c.854-.055 1.59-.538 1.998-1.237h.676c.434.743 1.24 1.243 2.162 1.243z"/>
                    <path fill="#FFF" d="M17.625 9.181h1.5v1h-1.5c-.276 0-.5-.224-.5-.5s.224-.5.5-.5z" transform="matrix(1 0 0 -1 0 19.363)"/>
                    <rect width="1" height="1" x="4.813" y="6.681" fill="#D8D8D8" rx=".5" transform="matrix(1 0 0 -1 0 14.363)"/>
                    <rect width="2" height="1" x="1.5" y="12.931" fill="#FFF" rx=".5" transform="matrix(1 0 0 -1 0 26.863)"/>
                    <path stroke="url(#fz9rmvi5rb)" d="M1.266 8.913c.3 0 .711-.244 1.237-.732.393-.365 1.004-.355 1.385.023l.267.265c.54.538 1.414.537 1.953-.002l.263-.262c.39-.39 1.024-.39 1.414.001l.005.005.252.256c.527.536 1.388.542 1.924.015l.004-.004.281-.28c.393-.388 1.025-.386 1.415.005l.264.264c.537.54 1.408.547 1.953.016l.309-.301c.392-.382 1.018-.377 1.404.01l.277.275c.384.385 1.008.385 1.392 0 .023-.023.045-.047.065-.072.339-.412.813-.619 1.422-.619"/>
                    <path stroke="url(#9pwmvsfk5c)" d="M1.266 12.663c.3 0 .711-.244 1.237-.732.393-.365 1.004-.355 1.385.023l.267.265c.54.538 1.414.537 1.953-.002l.263-.262c.39-.39 1.024-.39 1.414.001l.005.005.252.256c.527.536 1.388.542 1.924.015l.004-.004.281-.28c.393-.388 1.025-.386 1.415.005l.264.264c.537.54 1.408.547 1.953.016l.309-.301c.392-.382 1.018-.377 1.404.01l.277.275c.384.385 1.008.385 1.392 0 .023-.023.045-.047.065-.072.339-.412.813-.619 1.422-.619"/>
                    <path fill="#4A4A4A" fill-rule="nonzero" d="M13.125 7.494c1.38 0 2.5 1.12 2.5 2.5s-1.12 2.5-2.5 2.5-2.5-1.12-2.5-2.5 1.12-2.5 2.5-2.5zm0 1.25c-.69 0-1.25.56-1.25 1.25s.56 1.25 1.25 1.25 1.25-.56 1.25-1.25-.56-1.25-1.25-1.25z"/>
                </g>
            </g>
        </g>
    </g>
</svg>
